<?xml version="1.0" encoding="UTF-8"?><svg id="a" xmlns="http://www.w3.org/2000/svg" viewBox="0 0 96 96"><path d="M8.53,47.35v3.01L.26,45.75v-1.26l8.27-4.57v2.99l-4.27,2.21,4.27,2.23Z"/><path d="M12.59,50.08c-1.12,0-1.78.02-2.39.05.1-.56.13-1.28.13-2.36v-8.53c0-1.13-.03-1.83-.13-2.6h3.52c-.11.84-.13,1.29-.13,2.55v8.01h3.91c1.37,0,1.92-.02,2.68-.11v3.1c-.6-.08-1.39-.11-2.68-.11h-4.91Z"/><path d="M20.72,45.14c0-3.23,2.07-5.28,5.33-5.28s5.33,2.05,5.33,5.25-2.13,5.35-5.35,5.35-5.32-2.07-5.32-5.32ZM23.81,45.12c0,1.79.84,2.88,2.25,2.88s2.21-1.05,2.21-2.84-.82-2.88-2.2-2.88-2.26,1.07-2.26,2.84Z"/><path d="M32.28,45.14c0-3.23,2.07-5.28,5.33-5.28s5.33,2.05,5.33,5.25-2.13,5.35-5.35,5.35-5.32-2.07-5.32-5.32ZM35.37,45.12c0,1.79.84,2.88,2.25,2.88s2.21-1.05,2.21-2.84-.82-2.88-2.2-2.88-2.26,1.07-2.26,2.84Z"/><path d="M47.54,36.64c-.1.66-.13,1.36-.13,2.44v4.54l1.78-1.76c.74-.74,1.1-1.16,1.41-1.63h4.3c-.63.55-.82.73-1.7,1.58l-2.34,2.26,2.7,3.94c.99,1.42,1.05,1.52,1.5,2.07h-4.12c-.24-.68-.6-1.39-1.07-2.17l-1.23-2-1.21,1.16v.65c0,1.33.02,1.71.13,2.36h-3.3c.1-.73.13-1.37.13-2.44v-8.56c0-1.1-.05-1.84-.13-2.44h3.28Z"/><path d="M59.47,40.22c-.1.66-.13,1.31-.13,2.44v4.98c0,.87.05,1.75.13,2.44h-3.38c.1-.79.13-1.41.13-2.44v-4.98c0-1.05-.03-1.71-.13-2.44h3.38ZM59.42,36.64v2.42h-3.28v-2.42h3.28Z"/><path d="M61.18,50.08c.1-.76.13-1.44.13-2.44v-4.98c0-1.12-.03-1.79-.13-2.44h3.22v.68c0,.1-.02.34-.02.45,1.02-.97,2-1.37,3.33-1.37,1.12,0,2,.31,2.6.91.65.65.92,1.44.92,2.71v4.06c0,.94.05,1.75.13,2.42h-3.36c.1-.78.13-1.45.13-2.44v-3.31c0-.65-.06-.92-.26-1.2-.21-.29-.58-.45-1.07-.45-.9,0-1.71.57-2.41,1.7v3.26c0,.92.03,1.6.13,2.44h-3.34Z"/><path d="M86.53,36.64l-5.8,15.76h-2.89l5.82-15.76h2.88Z"/><path d="M87.46,42.91v-2.99l8.27,4.57v1.26l-8.27,4.6v-3.01l4.27-2.23-4.27-2.21Z"/></svg>